<svg style="object-fit:cover" id="my-svg" version="1" baseProfile="full" width="100%" height="100%" viewBox="0 0 1536 664" xmlns="http://www.w3.org/2000/svg"><rect width="1536" height="664" fill="#000"/><defs><linearGradient id="linear-gradient" x1="0" x2="1" y1="0" y2="1"><stop offset="0%" stop-color="#00227090"/><stop offset="100%" stop-color="#e8e9ed90"/></linearGradient></defs><path transform="scale(1, -1)" style="transform-origin:center" d="M 0,664 V 0,364 C 120.96428571428572,309.57142857142856 241.92857142857144,255.14285714285714 367,228 C 492.07142857142856,200.85714285714286 621.2500000000001,200.99999999999994 769,240 C 916.7499999999999,279.00000000000006 1083.0714285714287,356.85714285714283 1214,384 C 1344.9285714285713,411.14285714285717 1440.4642857142858,387.57142857142856 1536,364 C 1536,364 1536,664 1536,664 Z" stroke="none" stroke-width="0" fill="url(#linear-gradient)" class="transition-all duration-300 ease-in-out delay-150"/><defs><linearGradient id="linear-gradient" x1="0" x2="1" y1="0" y2="1"><stop offset="0%" stop-color="#002270ff"/><stop offset="100%" stop-color="#e8e9edff"/></linearGradient></defs><path transform="scale(1, -1)" style="transform-origin:center" d="M 0,664 V 0,546 C 111.42857142857142,612.6785714285714 222.85714285714283,679.3571428571429 362,646 C 501.14285714285717,612.6428571428571 667.9999999999999,479.24999999999994 790,450 C 912.0000000000001,420.75000000000006 989.1428571428573,495.6428571428571 1106,529 C 1222.8571428571427,562.3571428571429 1379.4285714285713,554.1785714285714 1536,546 C 1536,546 1536,664 1536,664 Z" stroke="none" stroke-width="0" fill="url(#linear-gradient)" class="transition-all duration-300 ease-in-out delay-150"/></svg>